<?xml version="1.0" encoding="UTF-8" standalone="no"?>
<!DOCTYPE svg PUBLIC "-//W3C//DTD SVG 1.1//EN" "http://www.w3.org/Graphics/SVG/1.1/DTD/svg11.dtd">
<svg width="100%" height="100%" viewBox="0 0 100 100" version="1.1" xmlns="http://www.w3.org/2000/svg" xmlns:xlink="http://www.w3.org/1999/xlink" xml:space="preserve" xmlns:serif="http://www.serif.com/" style="fill-rule:evenodd;clip-rule:evenodd;stroke-linejoin:round;stroke-miterlimit:2;">
    <g transform="matrix(1.08437,0,0,1.07768,-5.64516,-5.05549)">
        <rect x="5.206" y="4.691" width="92.22" height="92.792" style="fill:rgb(46,51,74);"/>
    </g>
    <g transform="matrix(0.6,0,0,0.6,35,35)">
        <path d="M25,-25C-2.57,-25 -25,-2.57 -25,25C-25,52.57 -2.57,75 25,75C52.57,75 75,52.57 75,25C75,-2.57 52.57,-25 25,-25ZM25,66.429C47.879,49.599 52.784,17.408 35.954,-5.473C32.879,-9.657 29.186,-13.351 25,-16.429C47.843,-16.429 66.429,2.156 66.429,25C66.429,47.843 47.843,66.429 25,66.429Z" style="fill:rgb(183,184,191);fill-rule:nonzero;"/>
    </g>
</svg>
