<?xml version="1.0" encoding="utf-8"?>
<!-- Generator: Adobe Illustrator 16.0.3, SVG Export Plug-In . SVG Version: 6.00 Build 0)  -->
<!DOCTYPE svg PUBLIC "-//W3C//DTD SVG 1.1//EN" "http://www.w3.org/Graphics/SVG/1.1/DTD/svg11.dtd">
<svg version="1.1" id="Layer_1" xmlns="http://www.w3.org/2000/svg" xmlns:xlink="http://www.w3.org/1999/xlink" x="0px" y="0px"
	 width="100px" height="100px" viewBox="0 0 100 100" enable-background="new 0 0 100 100" xml:space="preserve">
<path fill="#FFFFFF" d="M90.673,40.672C90.673,18.21,72.462,0,49.999,0C27.537,0,9.327,18.21,9.327,40.672
	c0,9.472,3.248,18.181,8.677,25.093v12.113c0,2.842,2.032,5.146,4.538,5.146h7.374v10.504c0,3.109,2.521,5.631,5.63,5.631
	c2.373,0,4.399-1.471,5.227-3.547c1.027,1.094,2.482,1.781,4.101,1.781c1.803,0,3.403-0.85,4.434-2.168
	c0.746,2.748,3.253,4.773,6.238,4.773c2.42,0,4.525-1.33,5.635-3.297c1.017,0.998,2.409,1.617,3.945,1.617
	c2.823,0,5.153-2.08,5.561-4.791h0.07V83.025h9.033c2.506,0,4.537-2.305,4.537-5.146V62.584c0-0.035-0.002-0.07-0.004-0.105
	C88.337,56.176,90.673,48.699,90.673,40.672z M35.377,67.816c-4.78,0-8.655-3.875-8.655-8.656s3.875-8.656,8.655-8.656
	c4.78,0,8.655,3.875,8.655,8.656S40.158,67.816,35.377,67.816z M51.599,80.477c-2.483,0.604-4.988-0.926-5.593-3.416
	c-0.604-2.488,0.919-4.994,3.402-5.598c0.129-0.031,0.257-0.035,0.383-0.055c-0.763-1.389-1.346-2.504-0.157-2.363
	c3.93,0.322,5.369,5.828,5.369,5.828C55.607,77.365,54.083,79.873,51.599,80.477z M64.79,68.318
	c-6.451,0-11.681-5.229-11.681-11.678c0-6.453,5.229-11.682,11.681-11.682s11.68,5.229,11.68,11.682
	C76.47,63.09,71.241,68.318,64.79,68.318z"/>
</svg>
