<?xml version="1.0" encoding="utf-8"?>
<!-- Generator: Adobe Illustrator 16.0.3, SVG Export Plug-In . SVG Version: 6.00 Build 0)  -->
<!DOCTYPE svg PUBLIC "-//W3C//DTD SVG 1.1//EN" "http://www.w3.org/Graphics/SVG/1.1/DTD/svg11.dtd">
<svg version="1.1" id="Layer_2" xmlns="http://www.w3.org/2000/svg" xmlns:xlink="http://www.w3.org/1999/xlink" x="0px" y="0px"
	 width="100px" height="100px" viewBox="0 0 100 100" enable-background="new 0 0 100 100" xml:space="preserve">
<path fill="#FFFFFF" d="M100,40.996c0-6.445-4.076-11.899-9.781-14.049c0.102-0.703,0.217-1.405,0.217-2.136
	c0-8.316-6.752-15.056-15.086-15.056c-0.342,0-0.654,0.077-0.984,0.099C72.234,4.114,66.748,0,60.256,0
	c-3.557,0-6.785,1.28-9.363,3.334C48.314,1.28,45.086,0,41.53,0c-6.561,0-12.087,4.203-14.164,10.036
	c-0.913-0.17-1.849-0.282-2.81-0.282c-8.336,0-15.09,6.74-15.09,15.056c0,0.85,0.115,1.671,0.25,2.483
	C4.044,29.462,0,34.903,0,41.323c0,3.166,0.987,6.098,2.662,8.521C0.987,52.271,0,55.198,0,58.365
	c0,6.427,4.051,11.874,9.729,14.036c-0.148,0.848-0.264,1.707-0.264,2.596c0,8.318,6.754,15.059,15.09,15.059
	c0.941,0,1.855-0.109,2.752-0.274C29.333,95.708,34.901,100,41.53,100c3.666,0,6.983-1.356,9.597-3.524
	c2.383,1.573,5.23,2.499,8.303,2.499c6.283,0,11.658-3.83,13.928-9.279c1.041,0.228,2.117,0.36,3.221,0.36
	c8.332,0,15.088-6.74,15.088-15.059c0-1.226-0.188-2.399-0.461-3.539c4.611-2.575,7.768-7.44,7.768-13.093
	c0-2.941-0.881-5.67-2.346-7.988C98.707,47.796,100,44.563,100,40.996z M89.418,50.655c-2.057,3.695-8.949-1.642-9.977-4.311
	c-0.492-1.278-1.445-1.752-2.563-1.884c0.406,1.985,0.691,4.036,0.691,6.194c0,12.757-7.553,23.101-16.873,23.101
	S43.826,63.412,43.826,50.655c0-2.107,0.273-4.109,0.659-6.048c-0.896,0.212-1.681,0.651-2.1,1.737
	c-1.028,2.668-7.921,8.006-9.979,4.311c-2.057-3.696,1.234-14.476,7.717-15.4c2.102-0.301,4.556,0.864,6.426,2.012
	c1.804,4.559,9.417,7.536,13.737,7.536c8.848,0,12.963-3.182,14.5-7.237c1.906-1.232,4.631-2.638,6.918-2.311
	C88.184,36.18,91.477,46.959,89.418,50.655z"/>
<path fill="#FFFFFF" d="M54.877,46.652c0,0-5.3,0.093-6.457,3.578c-0.389,1.045,0.75,0.763,2.173,0.377
	c-0.01,0.119-0.035,0.235-0.035,0.358c0,2.38,1.934,4.311,4.318,4.311c2.387,0,4.322-1.931,4.322-4.311
	C59.199,48.583,57.264,46.652,54.877,46.652z"/>
<path fill="#FFFFFF" d="M69.35,46.652c0,0-5.301,0.093-6.457,3.578c-0.391,1.045,0.75,0.763,2.174,0.377
	c-0.012,0.119-0.037,0.235-0.037,0.358c0,2.38,1.936,4.311,4.32,4.311s4.32-1.931,4.32-4.311
	C73.67,48.583,71.734,46.652,69.35,46.652z"/>
</svg>
